<?xml version="1.0" encoding="utf-8"?>
<!-- Generator: Adobe Illustrator 25.4.1, SVG Export Plug-In . SVG Version: 6.00 Build 0)  -->
<svg version="1.1" id="Layer_1" xmlns="http://www.w3.org/2000/svg" xmlns:xlink="http://www.w3.org/1999/xlink" x="0px" y="0px"
	 viewBox="0 0 65 81" style="enable-background:new 0 0 65 81;" xml:space="preserve">
<style type="text/css">
	.st0{fill:#F2E96B;}
	.st1{fill:#012326;}
	.st2{fill:#F2E96B;stroke:#012326;stroke-miterlimit:10;}
</style>
<g>
	<path class="st0" d="M-1146.56,285c-0.01,0.17-0.01,0.33-0.01,0.5V285H-1146.56z"/>
	<path class="st1" d="M-1146.56,285h-0.01v0.5C-1146.57,285.33-1146.57,285.17-1146.56,285L-1146.56,285z"/>
</g>
<g>
	<path class="st0" d="M-1114.43,285v0.5c0-0.17,0-0.33-0.01-0.5H-1114.43z"/>
	<path class="st1" d="M-1114.43,285h-0.01c0.01,0.17,0.01,0.33,0.01,0.5V285L-1114.43,285z"/>
</g>
<g>
	<path class="st0" d="M-1338.35,195.34c-0.01,0.17-0.01,0.33-0.01,0.5v-0.5H-1338.35z"/>
	<path class="st1" d="M-1338.35,195.34h-0.01v0.5C-1338.36,195.67-1338.36,195.51-1338.35,195.34L-1338.35,195.34z"/>
</g>
<g>
	<path class="st0" d="M-1306.22,195.34v0.5c0-0.17,0-0.33-0.01-0.5H-1306.22z"/>
	<path class="st1" d="M-1306.22,195.34h-0.01c0.01,0.17,0.01,0.33,0.01,0.5V195.34L-1306.22,195.34z"/>
</g>
<g>
	<path class="st0" d="M-1338.35,195.34c-0.01,0.17-0.01,0.33-0.01,0.5v-0.5H-1338.35z"/>
	<path class="st1" d="M-1338.35,195.34h-0.01v0.5C-1338.36,195.67-1338.36,195.51-1338.35,195.34L-1338.35,195.34z"/>
</g>
<g>
	<path class="st0" d="M-1306.22,195.34v0.5c0-0.17,0-0.33-0.01-0.5H-1306.22z"/>
	<path class="st1" d="M-1306.22,195.34h-0.01c0.01,0.17,0.01,0.33,0.01,0.5V195.34L-1306.22,195.34z"/>
</g>
<g>
	<path class="st0" d="M-1338.35,195.34c-0.01,0.17-0.01,0.33-0.01,0.5v-0.5H-1338.35z"/>
	<path class="st1" d="M-1338.35,195.34h-0.01v0.5C-1338.36,195.67-1338.36,195.51-1338.35,195.34L-1338.35,195.34z"/>
</g>
<g>
	<path class="st0" d="M-1306.22,195.34v0.5c0-0.17,0-0.33-0.01-0.5H-1306.22z"/>
	<path class="st1" d="M-1306.22,195.34h-0.01c0.01,0.17,0.01,0.33,0.01,0.5V195.34L-1306.22,195.34z"/>
</g>
<path class="st2" d="M-1112.5,114.5"/>
<path class="st2" d="M-1112.5,119.5"/>
<g>
	<path class="st2" d="M22.43,81"/>
	<path class="st2" d="M22.43,81V16.5c0-0.17,0-0.33,0.01-0.5C22.7,7.35,29.79,0.43,38.5,0.43S54.3,7.35,54.56,16
		c0.01,0.17,0.01,0.33,0.01,0.5V81"/>
	<path class="st2" d="M10.64,81.34"/>
	<path class="st2" d="M41.64,81.34"/>
	<path class="st2" d="M1.5,81V38.5c0-0.17,0-0.34,0.01-0.5C1.77,28.01,9.95,20,20,20s18.23,8.01,18.49,18
		c0.01,0.16,0.01,0.33,0.01,0.5V81"/>
	<path class="st2" d="M39.5,81.5"/>
	<path class="st2" d="M86.5,74.5"/>
	<path class="st2" d="M35.5,81.5v-31h0.01c-0.01-0.17-0.01-0.33-0.01-0.5c0-8.01,6.49-14.5,14.5-14.5S64.5,41.99,64.5,50
		c0,0.17,0,0.33-0.01,0.5h0.01v31"/>
</g>
</svg>
